<svg width="2230" height="2301" xmlns="http://www.w3.org/2000/svg" xmlns:xlink="http://www.w3.org/1999/xlink" xml:space="preserve" overflow="hidden"><g transform="translate(-1077 -57)"><path d="M1099.5 1243.5C1099.5 640.405 1588.63 151.5 2192 151.5 2795.37 151.5 3284.5 640.405 3284.5 1243.5 3284.5 1846.59 2795.37 2335.5 2192 2335.5 1588.63 2335.5 1099.5 1846.59 1099.5 1243.5Z" stroke="#1574B1" stroke-width="44.6875" stroke-miterlimit="8" fill="#FFFFFF" fill-rule="evenodd"/><path d="M1175 1243C1175 690.715 1622.94 243 2175.5 243 2728.06 243 3176 690.715 3176 1243 3176 1795.28 2728.06 2243 2175.5 2243 1622.94 2243 1175 1795.28 1175 1243Z" fill="#D92424" fill-rule="evenodd"/><path d="M1300 1019.5C1300 535.975 1691.97 144 2175.5 144 2659.03 144 3051 535.975 3051 1019.5 3051 1503.03 2659.03 1895 2175.5 1895 1691.97 1895 1300 1503.03 1300 1019.5Z" fill="#FFFFFF" fill-rule="evenodd"/><path d="M1099.5 1242.5C1099.5 639.405 1588.41 150.5 2191.5 150.5 2794.59 150.5 3283.5 639.405 3283.5 1242.5 3283.5 1845.59 2794.59 2334.5 2191.5 2334.5 1588.41 2334.5 1099.5 1845.59 1099.5 1242.5Z" stroke="#1574B1" stroke-width="44.6875" stroke-miterlimit="8" fill="none" fill-rule="evenodd"/><g><g><g><path d="M2371.56 298.656C2339.76 285.938 2311.27 282.122 2300.08 304.507 2285.45 333.76 2290.16 433.602 2279.98 451.663 2275.86 461.699 2265.17 467.368 2254.55 465.145 2237.38 464 2237.38 425.844 2237.38 425.844L2237.38 171.469 2211.94 171.469 2211.94 196.906 2161.06 196.906 2161.06 171.469 2135.62 171.469 2135.62 425.844C2135.62 425.844 2135.62 464 2118.58 465.654 2107.96 467.877 2097.27 462.208 2093.14 452.172 2082.97 434.111 2087.68 334.269 2073.05 305.016 2061.73 282.631 2033.88 285.938 2001.44 298.656 1812.19 381.455 1677.75 588.771 1677.75 831.826 1677.25 939.709 1704.82 1045.87 1757.75 1139.87 1760.42 1143.56 1774.41 1161.11 1787.51 1161.11 1883.54 1161.11 2046.09 1063.56 2075.34 975.675 2104.59 887.789 2091.49 713.542 2124.05 663.557 2137.8 640.876 2160.47 625.039 2186.5 619.932 2212.53 625.039 2235.2 640.876 2248.95 663.557 2281.51 713.542 2268.41 887.916 2297.66 975.675 2326.92 1063.43 2489.46 1161.11 2585.49 1161.11 2598.21 1161.11 2612.58 1143.56 2615.25 1139.87 2668.18 1045.87 2695.75 939.709 2695.25 831.826 2695.25 588.771 2560.81 381.455 2371.56 298.656ZM2161.06 222.344 2211.94 222.344 2211.94 247.781 2161.06 247.781ZM2161.06 273.219 2211.94 273.219 2211.94 298.656 2161.06 298.656ZM2161.06 324.094 2211.94 324.094 2211.94 349.531 2161.06 349.531ZM2161.06 374.969 2211.94 374.969 2211.94 400.406 2161.06 400.406ZM2529.91 746.738C2535.74 770.181 2542.87 793.28 2551.27 815.928 2558.71 830.011 2569.66 841.93 2583.07 850.523 2594.38 858.857 2596.79 874.783 2588.46 886.091 2583.68 892.574 2576.11 896.411 2568.06 896.438 2553.44 896.438 2539.95 881.557 2529.91 872.145 2516.15 859.07 2505.73 842.889 2499.51 824.958 2490.99 799.521 2484.5 774.083 2476.36 749.409 2468.99 763.808 2464.41 779.475 2462.88 795.578 2462.88 804.099 2463.77 812.239 2463.9 821.015 2464.49 835.052 2453.59 846.911 2439.55 847.503 2428.83 847.956 2418.98 841.634 2414.93 831.699 2407.3 813.13 2411.62 786.166 2415.82 768.105 2423.24 740.908 2435.1 715.122 2450.92 691.793 2431.92 659.117 2405.2 631.603 2373.08 611.665 2378.8 635.163 2380.73 659.42 2378.81 683.526 2378.89 696.098 2377.57 708.641 2374.86 720.919 2371.55 734.571 2357.8 742.955 2344.15 739.643 2340.33 738.719 2336.79 736.924 2333.78 734.401 2322.72 725.116 2325.13 712.779 2326.53 700.314 2330.99 659.487 2329.59 614.844 2301.1 582.03 2293.91 575.817 2285.07 571.837 2275.66 570.583 2264.21 567.276 2252.64 564.097 2241.19 560.663 2220.51 555.336 2201.63 544.577 2186.5 529.502 2171.05 544.484 2151.85 555.028 2130.92 560.027 2119.47 563.461 2107.9 566.64 2096.45 569.947 2085 573.254 2076.36 574.017 2070.12 582.666 2057.4 599.025 2048.96 618.306 2045.58 638.756 2043.22 658.953 2043.22 679.354 2045.58 699.551 2046.98 712.27 2049.39 724.353 2038.33 733.638 2027.47 742.559 2011.44 740.993 2002.52 730.14 1999.74 726.749 1997.87 722.697 1997.12 718.375 1989.37 682.838 1990.11 645.972 1999.28 610.774 1967.24 630.653 1940.56 658.077 1921.57 690.648 1937.89 713.649 1949.67 739.548 1956.29 766.961 1958.83 780.673 1959.98 794.607 1959.72 808.551 1960.45 816.377 1959.72 824.268 1957.56 831.826 1952.17 844.801 1937.29 850.949 1924.31 845.56 1915.53 841.912 1909.52 833.671 1908.72 824.195 1907.71 813.893 1908.72 803.209 1908.72 792.907 1907.45 777.58 1903.12 762.66 1896 749.027 1883.92 785.912 1878.71 830.554 1852.89 860.952 1839.15 877.359 1806.59 914.498 1784.84 887.28 1763.09 860.062 1810.28 838.949 1820.84 818.726 1827.51 803.104 1832.66 786.876 1836.23 770.268 1843.09 750.299 1848.31 731.094 1855.81 710.998 1869.69 674.032 1890.89 640.248 1918.13 611.665 1884.04 604.828 1848.96 617.289 1826.81 644.098 1816.38 655.672 1800.49 661.268 1787.64 648.931 1777.8 639.636 1776.96 624.264 1785.73 613.954 1826.18 557.737 1903.89 546.926 1964.43 573L1972.19 567.912C1950.12 544.325 1935.44 514.789 1929.96 482.951 1926.91 465.908 1922.97 442.633 1942.68 434.238 1954.46 429.219 1968.14 433.742 1974.61 444.795 1977.68 452.43 1979.2 460.603 1979.06 468.833 1983.17 497.665 1997.42 524.09 2019.25 543.365 2040.32 534.512 2061.89 526.91 2083.86 520.599 2102.2 516.639 2120.12 510.977 2137.41 503.683 2148.77 497.415 2157.26 486.969 2161.06 474.557L2161.06 425.844 2211.94 425.844 2211.94 474.429C2216.11 487.347 2225.27 498.061 2237.38 504.191 2254.35 511.128 2271.88 516.616 2289.78 520.599 2311.74 526.91 2333.32 534.512 2354.39 543.365 2376.71 523.713 2391.05 496.565 2394.71 467.053 2394.59 459.29 2396.06 451.587 2399.03 444.413 2405.54 433.408 2419.21 428.943 2430.95 433.984 2451.3 442.633 2446.73 467.053 2443.67 484.223 2437.92 515.428 2423.36 544.337 2401.7 567.531L2409.46 572.618C2470.76 546.163 2546.31 557.864 2587.52 613.191 2595.63 622.621 2595.95 636.465 2588.29 646.26 2575.57 661.268 2558.01 656.18 2546.95 643.843 2524.78 616.99 2489.65 604.484 2455.5 611.283 2490.73 649.873 2516.23 696.311 2529.91 746.738Z" fill="#1574B1"/></g></g></g><path d="M2899.77 970.365C2886.04 945.987 2854.86 937.278 2830.48 951.012 2821.61 956.006 2815.11 962.592 2810.95 970.77L2682.65 1186.11C2691.73 1197.05 2698.6 1209.24 2703.87 1223.79 2718.1 1269.78 2695.55 1320.44 2653.44 1344.16L2457.31 1454.65 2432.34 1410.33 2631.8 1297.96C2656.18 1284.23 2664.89 1253.05 2651.15 1228.67 2637.42 1204.29 2606.24 1195.58 2581.86 1209.32 2581.86 1209.32 2318.13 1357.89 2315.92 1359.14 2297.08 1369.75 2282.47 1385.28 2271.95 1402.88L2043.26 1730.25 2285.79 1797.99C2317.24 1685.38 2394.71 1605.24 2495.55 1548.44L2702.76 1431.7C2712.73 1426.08 2719.73 1417.76 2724.36 1407.85L2903.61 1013.46C2907.48 999.596 2907.26 983.662 2899.77 970.365Z" fill="#ECB6B4" fill-rule="evenodd"/><path d="M1119.22 50.8733C1119.22 22.893 1096.32 0 1068.34 0 1058.17 0 1049.27 2.54367 1041.63 7.631L824.149 132.271C826.693 146.262 826.693 160.251 824.149 175.513 813.975 222.572 769.461 255.638 721.131 255.638L496.016 255.638 496.016 204.765 724.946 204.765C752.927 204.765 775.82 181.873 775.82 153.891 775.82 125.912 752.927 103.018 724.946 103.018 724.946 103.018 422.249 103.018 419.706 103.018 398.085 103.018 377.736 109.378 359.93 119.552L0 292.522 178.057 470.578C260.727 387.91 367.561 356.113 483.298 356.113L721.131 356.113C732.577 356.113 742.752 352.299 751.656 345.939L1101.41 90.2995C1111.58 80.1248 1119.22 66.1353 1119.22 50.8733Z" fill="#ECB6B4" fill-rule="evenodd" transform="matrix(-0.871254 -0.490832 -0.490832 0.871254 2451.11 1475.39)"/><rect x="2067" y="1726" width="216" height="113" fill="#ECB6B4"/><path d="M2983.34 1589.16C2982.74 1592.05 2982.9 1594.8 2983.82 1597.43 2984.37 1599.15 2985.6 1601.47 2987.51 1604.37 2990.53 1603.45 2993.73 1601.63 2997.09 1598.92 3000.44 1596.21 3003.06 1593.39 3004.94 1590.46L3004.24 1589.23C3000.8 1588.43 2997.22 1588.02 2993.52 1588.02 2990.4 1588.04 2987.01 1588.42 2983.34 1589.16ZM2974.06 1579.62C2981.48 1578.64 2987.97 1578.14 2993.54 1578.11 3001.08 1578.11 3006.75 1579.03 3010.56 1580.87L3024.56 1587.63 3020.52 1596C3018.79 1599.59 3016.03 1603.25 3012.24 1606.98 3007.85 1611.28 3003.07 1614.63 2997.88 1617.02 3000.18 1621.97 3001.29 1626.42 3001.2 1630.38 3001.11 1634.34 2999.56 1639.43 2996.56 1645.65L2990.5 1658.2 2976.5 1651.44 2982.44 1639.13C2984.8 1634.25 2985.66 1629.31 2985.03 1624.31 2984.52 1620.43 2983.11 1616.44 2980.79 1612.34 2977.65 1606.79 2975.48 1600.78 2974.3 1594.32 2973.26 1588.53 2973.18 1583.63 2974.06 1579.62Z" fill="#FFFFFF" fill-rule="evenodd"/><text fill="#000000" fill-opacity="0" font-family="Arial,Arial_MSFontService,sans-serif" font-size="80.092" direction="rtl" writing-mode="rl-tb" x="3024.56" y="1648.19">م</text><path d="M2951.12 1631.98C2955.55 1631.96 2959.13 1632.3 2961.86 1633.02 2965.97 1634.14 2970.84 1636.54 2976.48 1640.22L2994.44 1651.95 2990.67 1657.71C2988.59 1660.9 2986.36 1663.36 2983.99 1665.08 2981.62 1666.8 2979.01 1668.09 2976.18 1668.95 2976.49 1672.5 2976.38 1675.34 2975.84 1677.47 2975.08 1680.6 2973.24 1684.39 2970.35 1688.83L2967.17 1693.69C2965.48 1696.28 2963.28 1698.55 2960.59 1700.49 2958.83 1701.77 2956.39 1703.16 2953.27 1704.68 2953.5 1708.24 2953.3 1711.24 2952.67 1713.68 2952.04 1716.11 2950.26 1719.57 2947.33 1724.06L2937.9 1738.5 2924.88 1730 2934.31 1715.56C2936.95 1711.52 2938.49 1708.4 2938.93 1706.2 2939.68 1702.56 2938.33 1699.61 2934.89 1697.36 2933.44 1696.42 2931.94 1695.55 2930.4 1694.75 2928.86 1693.96 2927.06 1693.18 2925 1692.4L2922.51 1686.4C2928.01 1688 2932.11 1689.04 2934.79 1689.51 2939.47 1690.29 2943.35 1690.34 2946.44 1689.65 2950.18 1688.82 2953.09 1686.81 2955.18 1683.62L2958.45 1678.6C2960.9 1674.86 2962.13 1671.72 2962.16 1669.18 2962.16 1666.33 2960.74 1663.99 2957.9 1662.13 2956.35 1661.12 2954.79 1660.24 2953.22 1659.5 2951.64 1658.75 2949.89 1658 2947.97 1657.24L2945.53 1651.17 2953.59 1654.19C2960 1656.46 2964.92 1657.32 2968.33 1656.78 2971.34 1656.32 2973.78 1654.64 2975.67 1651.75 2976.55 1650.4 2976.85 1649.05 2976.56 1647.69 2976.28 1646.33 2975.49 1645.23 2974.19 1644.38 2971.4 1642.55 2967.79 1641.66 2963.36 1641.68 2962.63 1641.7 2960.21 1641.87 2956.1 1642.17Z" fill="#FFFFFF" fill-rule="evenodd"/><text fill="#000000" fill-opacity="0" font-family="Arial,Arial_MSFontService,sans-serif" font-size="106.523" direction="rtl" writing-mode="rl-tb" x="2994.44" y="1725.19">س</text><path d="M2889.79 1703.66C2896.7 1703.73 2901.68 1704.3 2904.71 1705.38 2909.29 1707.01 2915.7 1711.16 2923.95 1717.83L2940.91 1731.53 2908.89 1771.14 2896.8 1761.37 2924.71 1726.83C2919.25 1722.41 2914.55 1719.69 2910.63 1718.67 2907.93 1717.94 2903.3 1717.79 2896.74 1718.23ZM2850.25 1704.1 2865.3 1697.42 2871.11 1710.85 2856.17 1717.39ZM2856.79 1683.08 2871.96 1676.38 2877.59 1689.89 2862.52 1696.32Z" fill="#FFFFFF" fill-rule="evenodd"/><text fill="#000000" fill-opacity="0" font-family="Arial,Arial_MSFontService,sans-serif" font-size="94.7585" direction="rtl" writing-mode="rl-tb" x="2940.91" y="1759.3">ت</text><path d="M2875.81 1738.31C2880.16 1739.14 2883.6 1740.18 2886.15 1741.41 2889.96 1743.31 2894.27 1746.61 2899.08 1751.32L2914.41 1766.31 2909.6 1771.23C2906.94 1773.96 2904.27 1775.94 2901.61 1777.17 2898.95 1778.4 2896.15 1779.15 2893.2 1779.44 2892.82 1782.98 2892.15 1785.75 2891.21 1787.74 2889.85 1790.66 2887.32 1794.02 2883.61 1797.81L2879.55 1801.96C2877.38 1804.17 2874.79 1805.97 2871.77 1807.35 2869.8 1808.26 2867.14 1809.15 2863.78 1810.03 2863.31 1813.57 2862.53 1816.48 2861.44 1818.75 2860.35 1821.01 2857.93 1824.06 2854.18 1827.89L2842.12 1840.22 2831.01 1829.35 2843.06 1817.02C2846.44 1813.57 2848.56 1810.81 2849.42 1808.74 2850.85 1805.31 2850.1 1802.16 2847.17 1799.28 2845.93 1798.07 2844.63 1796.93 2843.27 1795.85 2841.91 1794.77 2840.3 1793.65 2838.43 1792.49L2837.16 1786.12C2842.25 1788.76 2846.06 1790.58 2848.6 1791.56 2853.04 1793.24 2856.84 1794.04 2860 1793.96 2863.83 1793.88 2867.08 1792.47 2869.74 1789.74L2873.93 1785.47C2877.05 1782.27 2878.88 1779.43 2879.4 1776.94 2879.96 1774.15 2879.02 1771.57 2876.59 1769.2 2875.27 1767.91 2873.91 1766.74 2872.51 1765.7 2871.11 1764.67 2869.54 1763.59 2867.8 1762.47L2866.59 1756.04 2873.91 1760.57C2879.76 1764.04 2884.41 1765.85 2887.87 1765.98 2890.9 1766.11 2893.63 1764.94 2896.05 1762.47 2897.17 1761.32 2897.72 1760.05 2897.71 1758.66 2897.69 1757.27 2897.13 1756.04 2896.03 1754.95 2893.64 1752.62 2890.27 1751.04 2885.93 1750.2 2885.21 1750.08 2882.8 1749.77 2878.71 1749.27ZM2826.62 1740.81 2842.23 1735.58 2846.74 1749.5 2831.25 1754.6ZM2835.11 1720.49 2850.85 1715.27 2855.17 1729.25 2839.56 1734.22ZM2811.49 1721.77 2827.17 1716.73 2831.69 1730.77 2816.2 1735.62Z" fill="#FFFFFF" fill-rule="evenodd"/><text fill="#000000" fill-opacity="0" font-family="Arial,Arial_MSFontService,sans-serif" font-size="124.955" direction="rtl" writing-mode="rl-tb" x="2914.41" y="1824.6">ش</text><path d="M2799.31 1810.63C2798.04 1811.71 2797.38 1813.14 2797.32 1814.91 2797.27 1816.68 2797.82 1818.25 2798.98 1819.61 2801.91 1823.05 2805.67 1823.84 2810.26 1821.97 2811.88 1821.29 2815.22 1819.15 2820.28 1815.54 2816.15 1812.8 2812.85 1810.95 2810.39 1810 2805.64 1808.18 2801.94 1808.39 2799.31 1810.63ZM2791.62 1796.64C2796.25 1792.7 2802.27 1792.66 2809.7 1796.5 2815.58 1799.55 2821.23 1804.25 2826.64 1810.6L2846.63 1834.06 2805.27 1869.3 2795.19 1857.46 2818.52 1837.58C2821.33 1835.19 2823.64 1833.05 2825.44 1831.16 2827.23 1829.28 2829 1827.01 2830.73 1824.36 2821.97 1829.87 2816 1833.12 2812.84 1834.09 2805.7 1836.26 2799.8 1834.63 2795.17 1829.19 2791.11 1824.43 2788.53 1818.88 2787.44 1812.53 2786.19 1805.38 2787.58 1800.08 2791.62 1796.64ZM2763.97 1769.02 2779.17 1766.87 2781.53 1781.76 2766.44 1783.35Z" fill="#FFFFFF" fill-rule="evenodd"/><text fill="#000000" fill-opacity="0" font-family="Arial,Arial_MSFontService,sans-serif" font-size="102.425" direction="rtl" writing-mode="rl-tb" x="2846.63" y="1856.49">ف</text><path d="M2728.47 1899.85 2732.42 1899.25C2732.8 1903.72 2733.19 1908.15 2733.59 1912.54 2734.59 1919.85 2736.29 1925.21 2738.7 1928.61 2742.92 1934.6 2749.25 1936.96 2757.68 1935.67 2765.71 1934.45 2774.91 1930.19 2785.28 1922.87 2792.24 1917.96 2797.99 1913.1 2802.54 1908.28 2808.14 1902.37 2810.13 1898.26 2808.51 1895.98 2807.93 1895.15 2807.13 1894.79 2806.1 1894.89 2805.08 1894.99 2803.72 1895.64 2802.02 1896.84 2800.6 1897.62 2798.43 1898.92 2795.51 1900.72 2792.59 1902.53 2790.7 1903.74 2789.82 1904.35 2786.75 1906.52 2784.28 1907.66 2782.4 1907.79 2780.52 1907.91 2779.01 1907.17 2777.88 1905.56 2773.62 1899.53 2771.91 1893.33 2772.75 1886.98 2773.47 1881.81 2775.76 1876.73 2779.61 1871.75 2782.52 1868.02 2786.02 1864.72 2790.11 1861.83L2802.88 1852.82 2811.85 1865.52 2799.07 1874.53C2791.57 1879.82 2786.08 1883.99 2782.58 1887.04 2779.08 1890.09 2777.75 1892.2 2778.57 1893.37 2779.7 1894.98 2782.53 1894.19 2787.06 1890.99 2789.06 1889.58 2790.67 1888.52 2791.91 1887.79 2793.15 1887.06 2795.89 1885.53 2800.14 1883.18 2802.68 1881.83 2804.55 1881.06 2805.73 1880.88 2807.66 1880.61 2809.26 1881.38 2810.53 1883.18 2816.95 1892.28 2818.63 1901.01 2815.56 1909.38 2812.23 1918.5 2803.05 1928.38 2788.01 1938.99 2777.54 1946.37 2767.97 1950.47 2759.28 1951.28 2750.03 1952.11 2742.93 1949.03 2737.98 1942.02 2734 1936.38 2731.33 1929.29 2729.99 1920.76 2729.49 1917.69 2728.98 1910.72 2728.47 1899.85Z" fill="#FFFFFF" fill-rule="evenodd"/><text fill="#000000" fill-opacity="0" font-family="Arial,Arial_MSFontService,sans-serif" font-size="98.5947" direction="rtl" writing-mode="rl-tb" x="2817.05" y="1939.09">ى</text><path d="M2524.26 1915.68C2533.43 1912.16 2542.22 1912.16 2550.63 1915.7 2559.04 1919.23 2564.78 1925 2567.86 1933.01 2570.06 1938.74 2570.93 1944.98 2570.46 1951.73 2569.8 1962.32 2566.79 1974.42 2561.43 1988.03 2553.39 2008.48 2548.24 2020.92 2545.99 2025.36L2575.52 2014.02C2581.53 2011.71 2585.65 2009.87 2587.9 2008.49 2590.15 2007.12 2591.99 2005.38 2593.41 2003.27 2594.83 2001.16 2595.79 1998.57 2596.27 1995.52L2599.36 1994.33 2599.8 2019.15 2533.06 2044.78 2531.88 2041.69C2544.63 2016.24 2552.83 1996.31 2556.48 1981.89 2560.13 1967.47 2560.15 1955.56 2556.54 1946.16 2553.79 1938.99 2549.33 1933.94 2543.16 1931.01 2537 1928.08 2530.85 1927.79 2524.74 1930.14 2519.18 1932.28 2514.81 1935.82 2511.64 1940.77 2508.47 1945.73 2507.03 1951.75 2507.33 1958.84L2504.25 1960.03C2501.68 1949.21 2502.22 1939.94 2505.87 1932.22 2509.51 1924.51 2515.64 1918.99 2524.26 1915.68Z" fill="#FFFFFF" fill-rule="evenodd"/><text fill="#000000" fill-opacity="0" font-family="Arial,Arial_MSFontService,sans-serif" font-size="131.733" x="2502.66" y="2028.31">2</text><path d="M2598.74 1883.49C2607.44 1879.2 2615.52 1878.74 2622.96 1882.11 2628.57 1884.59 2632.56 1888.23 2634.93 1893.04 2638.83 1900.95 2637.89 1911.57 2632.12 1924.92 2640.09 1924.24 2646.98 1925.49 2652.8 1928.66 2658.62 1931.84 2663.14 1936.71 2666.39 1943.28 2671.02 1952.69 2672.05 1962.31 2669.47 1972.15 2666.09 1984.98 2657.01 1995.04 2642.21 2002.34 2634.89 2005.95 2629.46 2007.49 2625.92 2006.98 2622.38 2006.47 2620.09 2005.17 2619.07 2003.09 2618.3 2001.54 2618.26 1999.87 2618.93 1998.07 2619.61 1996.28 2620.83 1994.95 2622.59 1994.08 2623.93 1993.42 2625.4 1992.96 2626.99 1992.7 2628.03 1992.52 2630.57 1992.48 2634.61 1992.58 2638.64 1992.69 2641.35 1992.59 2642.74 1992.31 2645.01 1991.92 2647.26 1991.17 2649.51 1990.07 2654.96 1987.38 2658.66 1982.93 2660.61 1976.72 2662.56 1970.51 2662.11 1964.52 2659.27 1958.75 2657.19 1954.53 2654.22 1950.88 2650.38 1947.79 2647.51 1945.49 2644.87 1943.97 2642.45 1943.23 2639.1 1942.23 2634.99 1941.85 2630.13 1942.09 2625.26 1942.33 2620.75 1943.48 2616.58 1945.53L2614.02 1946.8 2612.83 1944.39C2616.79 1941.78 2620.27 1938.17 2623.28 1933.56 2626.29 1928.95 2627.89 1924.41 2628.07 1919.94 2628.25 1915.46 2627.31 1911.12 2625.22 1906.9 2622.51 1901.39 2618.59 1897.79 2613.47 1896.1 2608.35 1894.41 2603.23 1894.83 2598.1 1897.36 2589.82 1901.44 2585.09 1909.29 2583.91 1920.9L2580.63 1920.92C2580.12 1912.07 2581.25 1904.49 2584.01 1898.18 2586.78 1891.87 2591.68 1886.97 2598.74 1883.49Z" fill="#FFFFFF" fill-rule="evenodd"/><text fill="#000000" fill-opacity="0" font-family="Arial,Arial_MSFontService,sans-serif" font-size="127.194" x="2580.51" y="1991.18">3</text><path d="M2448.16 2060.87 2464.25 2064.39 2460.99 2078.65 2445.08 2075.09ZM2465.87 2047.79 2482.07 2051.36 2478.61 2065.58 2462.66 2061.85ZM2453.19 1981.26C2458.73 1985.41 2462.4 1988.81 2464.21 1991.48 2466.94 1995.5 2469.65 2002.64 2472.36 2012.89L2477.93 2033.97 2428.69 2046.98 2424.72 2031.95 2467.65 2020.6C2465.86 2013.81 2463.68 2008.84 2461.13 2005.69 2459.38 2003.51 2455.73 2000.65 2450.18 1997.13Z" fill="#FFFFFF" fill-rule="evenodd"/><text fill="#000000" fill-opacity="0" font-family="Arial,Arial_MSFontService,sans-serif" font-size="97.3848" direction="rtl" writing-mode="rl-tb" x="2482.07" y="2066.48">ي</text><path d="M2414.07 2019.61C2412.44 2019.94 2411.13 2020.77 2410.16 2022.1 2409.18 2023.42 2408.86 2024.9 2409.19 2026.53 2409.78 2029.39 2411.5 2031.31 2414.38 2032.27 2417.25 2033.23 2421.6 2033.12 2427.44 2031.93 2425.01 2026.59 2422.67 2023.02 2420.42 2021.23 2418.47 2019.69 2416.35 2019.15 2414.07 2019.61ZM2413.56 2005.03C2418.64 2004 2422.89 2006.2 2426.31 2011.64 2429 2015.89 2431.19 2022.14 2432.87 2030.37L2434.9 2040.35C2436.87 2049.98 2435.26 2060.28 2430.08 2071.24 2424.31 2083.49 2416.23 2090.67 2405.84 2092.79 2401.99 2093.57 2397.93 2093.95 2393.67 2093.91 2390.56 2093.87 2386.45 2093.55 2381.35 2092.95 2377.28 2092.39 2373.22 2091.85 2369.16 2091.34L2370.02 2087.97C2373.45 2088.06 2377.04 2088.16 2380.8 2088.28 2384.56 2088.39 2387.88 2088.16 2390.73 2087.57 2397.86 2086.12 2404.23 2082.93 2409.85 2078.02 2414.23 2074.14 2418.34 2068.99 2422.2 2062.55 2424.15 2059.29 2426.8 2054.1 2430.14 2046.97 2422.27 2048.58 2416.11 2048.53 2411.69 2046.82 2406.67 2044.86 2403.49 2040.62 2402.16 2034.08 2400.93 2028.07 2401.2 2022.21 2402.95 2016.5 2405 2009.88 2408.54 2006.06 2413.56 2005.03Z" fill="#FFFFFF" fill-rule="evenodd"/><text fill="#000000" fill-opacity="0" font-family="Arial,Arial_MSFontService,sans-serif" font-size="89.1251" direction="rtl" writing-mode="rl-tb" x="2435.71" y="2082.77">و</text><path d="M2322.63 1949.29 2324.1 1950.06C2324.61 1953.48 2326.91 1955.76 2331 1956.89 2334.12 1957.63 2337.27 1958.36 2340.45 1959.09 2340.89 1962.04 2341.13 1965.22 2341.16 1968.65 2341.19 1972.08 2341 1974.67 2340.6 1976.42L2336.15 1975.64 2356.94 2043.36 2359.52 2060.68 2315.87 2067.21 2313.57 2051.83 2348.3 2046.64 2326.58 1973.27 2321.65 1971.75C2321.05 1967.69 2320.83 1963.82 2321 1960.15 2321.18 1956.48 2321.72 1952.86 2322.63 1949.29Z" fill="#FFFFFF" fill-rule="evenodd"/><text fill="#000000" fill-opacity="0" font-family="Arial,Arial_MSFontService,sans-serif" font-size="117.922" direction="rtl" writing-mode="rl-tb" x="2359.52" y="2052.47">ل</text><path d="M2289.4 2088.52 2304.79 2094.35 2299.49 2107.98 2284.27 2102.13ZM2308.83 2078.16 2324.32 2084.07 2318.83 2097.63 2303.59 2091.61ZM2306.02 2010.5C2310.88 2015.41 2314.02 2019.32 2315.42 2022.22 2317.53 2026.6 2319.17 2034.05 2320.35 2044.59L2322.78 2066.26 2272.16 2071.93 2270.43 2056.47 2314.57 2051.53C2313.79 2044.55 2312.36 2039.31 2310.29 2035.83 2308.88 2033.41 2305.69 2030.05 2300.71 2025.75Z" fill="#FFFFFF" fill-rule="evenodd"/><text fill="#000000" fill-opacity="0" font-family="Arial,Arial_MSFontService,sans-serif" font-size="97.4783" direction="rtl" writing-mode="rl-tb" x="2324.32" y="2095.79">ي</text><path d="M2261.65 2042.73C2259.98 2042.83 2258.57 2043.46 2257.42 2044.63 2256.26 2045.8 2255.73 2047.21 2255.82 2048.88 2255.99 2051.79 2257.42 2053.94 2260.13 2055.3 2262.83 2056.67 2267.15 2057.19 2273.1 2056.85 2271.47 2051.21 2269.67 2047.35 2267.7 2045.25 2265.99 2043.44 2263.97 2042.6 2261.65 2042.73ZM2263.24 2028.23C2268.42 2027.94 2272.31 2030.73 2274.91 2036.61 2276.96 2041.21 2278.22 2047.7 2278.7 2056.08L2279.27 2066.25C2279.83 2076.07 2276.76 2086.03 2270.05 2096.13 2262.58 2107.42 2253.55 2113.36 2242.96 2113.96 2239.03 2114.18 2234.97 2113.97 2230.75 2113.31 2227.68 2112.83 2223.66 2111.92 2218.69 2110.59 2214.75 2109.45 2210.81 2108.33 2206.87 2107.24L2208.21 2104.03C2211.58 2104.61 2215.12 2105.23 2218.83 2105.89 2222.54 2106.54 2225.85 2106.79 2228.76 2106.62 2236.02 2106.21 2242.78 2103.98 2249.05 2099.92 2253.94 2096.72 2258.76 2092.21 2263.5 2086.39 2265.9 2083.45 2269.27 2078.7 2273.61 2072.12 2265.58 2072.58 2259.5 2071.64 2255.37 2069.31 2250.69 2066.65 2248.15 2061.99 2247.78 2055.33 2247.43 2049.21 2248.53 2043.45 2251.09 2038.05 2254.08 2031.79 2258.13 2028.52 2263.24 2028.23Z" fill="#FFFFFF" fill-rule="evenodd"/><text fill="#000000" fill-opacity="0" font-family="Arial,Arial_MSFontService,sans-serif" font-size="85.8337" direction="rtl" writing-mode="rl-tb" x="2279.34" y="2103.32">و</text><path d="M2140.72 1959.4 2142.02 1960.42C2141.9 1963.88 2143.75 1966.53 2147.56 1968.39 2150.5 1969.69 2153.46 1970.98 2156.46 1972.28 2156.35 1975.25 2156.01 1978.43 2155.41 1981.81 2154.82 1985.18 2154.17 1987.7 2153.45 1989.34L2149.22 1987.76 2157.34 2058.14 2156.74 2075.64 2112.63 2074.12 2113.16 2058.58 2148.26 2059.79 2140.24 1983.7 2135.67 1981.31C2135.81 1977.2 2136.3 1973.36 2137.14 1969.78 2137.98 1966.2 2139.17 1962.74 2140.72 1959.4Z" fill="#FFFFFF" fill-rule="evenodd"/><text fill="#000000" fill-opacity="0" font-family="Arial,Arial_MSFontService,sans-serif" font-size="116.246" direction="rtl" writing-mode="rl-tb" x="2157.34" y="2061.11">ل</text><path d="M2034.09 1961.76C2038.35 1962.18 2044.76 1965.54 2053.29 1971.83 2062.84 1978.82 2070.65 1986.66 2076.73 1995.35 2084.24 2005.97 2087.53 2015.96 2086.61 2025.33 2086.49 2026.51 2086.33 2027.51 2086.13 2028.33 2085.93 2029.15 2085.53 2030.16 2084.93 2031.36 2082.35 2023.62 2078.18 2015.48 2072.44 2006.95 2066.07 1997.52 2060.81 1992.6 2056.66 1992.19 2055.77 1992.1 2054.81 1992.79 2053.77 1994.24 2052.73 1995.69 2051.61 1996.36 2050.43 1996.24 2048.83 1996.08 2046.41 1994.8 2043.18 1992.38 2039.11 1989.35 2035.94 1985.98 2033.67 1982.28 2030.63 1977.31 2029.37 1972.22 2029.89 1967 2030.26 1963.27 2031.66 1961.52 2034.09 1961.76ZM2104.92 1965.54C2105.61 1974.23 2106.15 1983.59 2106.54 1993.63 2106.81 2000.54 2107 2007.95 2107.12 2015.86 2107.29 2025.58 2107.51 2033.41 2107.75 2039.36 2108.08 2046.94 2109.15 2052.43 2110.97 2055.84 2112.18 2058.12 2113.5 2059.33 2114.92 2059.47L2121.24 2060.09 2119.7 2075.56 2113.39 2074.94C2108.41 2074.45 2104.68 2071.35 2102.19 2065.66 2099.22 2058.78 2098.39 2048.73 2099.7 2035.51 2099.79 2034.56 2099.81 2033.28 2099.76 2031.66 2099.71 2030.04 2099.71 2029.02 2099.75 2028.6 2092.49 2043.87 2086.35 2054.21 2081.32 2059.64 2075.37 2066 2067.47 2069.82 2057.65 2071.13 2049.28 2072.21 2035.25 2071.78 2015.57 2069.83L2015.82 2067.34C2032.24 2064.12 2044.54 2061.15 2052.71 2058.43 2065.89 2054.1 2076.1 2048.62 2083.34 2041.97 2092.09 2033.98 2097.07 2023.97 2098.26 2011.93 2098.83 2006.12 2099 2000.66 2098.76 1995.55 2098.52 1990.44 2098 1985.18 2097.22 1979.77L2100.9 1972.6C2102.37 1969.81 2103.71 1967.46 2104.92 1965.54ZM2044.6 1932.63C2045.79 1932.75 2046.77 1933.25 2047.55 1934.14 2048.33 1935.02 2048.66 1936.12 2048.53 1937.42 2048.45 1938.25 2048.18 1939.08 2047.74 1939.9 2047.3 1940.73 2046.7 1941.64 2045.95 1942.64 2044.27 1940.8 2042.37 1939.77 2040.23 1939.56 2038.93 1939.43 2037.61 1939.57 2036.29 1939.98 2034.96 1940.39 2034.26 1940.95 2034.19 1941.66 2034.1 1942.55 2035.36 1943.9 2037.96 1945.71 2040.57 1947.53 2042.85 1948.53 2044.8 1948.72 2046.11 1948.85 2047.05 1948.9 2047.62 1948.87 2048.19 1948.84 2049.4 1948.55 2051.25 1948.02 2051.1 1949.5 2050.05 1950.74 2048.1 1951.74 2046.78 1952.39 2044.83 1953.04 2042.25 1953.68L2025.15 1957.73C2025.42 1955.01 2028.62 1952.9 2034.75 1951.41 2033.01 1950.28 2031.71 1949.22 2030.84 1948.24 2029.71 1946.99 2029.21 1945.74 2029.33 1944.5 2029.51 1942.66 2031.34 1940.24 2034.81 1937.23 2038.67 1933.9 2041.93 1932.37 2044.6 1932.63Z" fill="#FFFFFF" fill-rule="evenodd"/><text fill="#000000" fill-opacity="0" font-family="Arial,Arial_MSFontService,sans-serif" font-size="142.961" direction="rtl" writing-mode="rl-tb" x="2121.24" y="2057.69">لأ</text><path d="M1999.24 2024.88C1996.3 2025.08 1993.69 2025.96 1991.4 2027.55 1989.89 2028.55 1987.99 2030.35 1985.7 2032.96 1987.4 2035.63 1990 2038.22 1993.51 2040.73 1997.02 2043.25 2000.44 2045.02 2003.76 2046.04L2004.76 2045.04C2004.62 2041.51 2004.05 2037.95 2003.06 2034.38 2002.21 2031.38 2000.94 2028.22 1999.24 2024.88ZM2005.96 2013.39C2008.89 2020.27 2011.11 2026.4 2012.62 2031.76 2014.63 2039.02 2015.26 2044.74 2014.51 2048.9L2011.73 2064.2 2002.59 2062.54C1998.66 2061.83 1994.4 2060.15 1989.79 2057.5 1984.48 2054.41 1979.98 2050.69 1976.29 2046.33 1972.13 2049.88 1968.14 2052.14 1964.3 2053.1 1960.46 2054.07 1955.14 2053.94 1948.34 2052.71L1934.63 2050.23 1937.4 2034.93 1950.85 2037.36C1956.18 2038.33 1961.18 2037.84 1965.83 2035.9 1969.43 2034.37 1972.9 2031.95 1976.23 2028.61 1980.74 2024.1 1985.95 2020.42 1991.85 2017.55 1997.16 2015 2001.86 2013.61 2005.96 2013.39Z" fill="#FFFFFF" fill-rule="evenodd"/><text fill="#000000" fill-opacity="0" font-family="Arial,Arial_MSFontService,sans-serif" font-size="50.8108" direction="rtl" writing-mode="rl-tb" x="2014.82" y="2057.85">م</text><path d="M1941.07 1997.54C1944.66 2003.14 1947.02 2008.43 1948.14 2013.39 1949.39 2019.01 1949.23 2024.87 1947.65 2030.99L1942.21 2052.01C1940.57 2058.35 1936.16 2064.23 1928.98 2069.63 1922.7 2074.41 1915.48 2078.05 1907.33 2080.56 1899.57 2082.98 1893.52 2083.63 1889.2 2082.51 1885.22 2081.48 1881.07 2079.8 1876.75 2077.45 1873.46 2075.67 1869.6 2073.23 1865.17 2070.12 1861.42 2067.49 1857.7 2064.86 1854.01 2062.25L1856.38 2059.17C1859.99 2060.9 1863.76 2062.69 1867.68 2064.54 1871.6 2066.38 1875.23 2067.74 1878.58 2068.6 1885.96 2070.51 1894.27 2070.13 1903.51 2067.48 1911.9 2065.03 1919.51 2061.17 1926.35 2055.89 1933.19 2050.62 1937.3 2045.32 1938.67 2040.02 1939.85 2035.46 1939.76 2030.33 1938.4 2024.63 1937.31 2020.04 1935.39 2015.11 1932.63 2009.85Z" fill="#FFFFFF" fill-rule="evenodd"/><text fill="#000000" fill-opacity="0" font-family="Arial,Arial_MSFontService,sans-serif" font-size="85.5039" direction="rtl" writing-mode="rl-tb" x="1948.97" y="2072.35">ر</text><path d="M1875.14 1920.25C1873.96 1927.01 1872.25 1936.22 1870 1947.89 1867.76 1959.56 1865.58 1970.03 1863.46 1979.3 1860.85 1990.85 1858.62 1999.49 1856.77 2005.22 1855.3 2009.75 1853.06 2013.88 1850.04 2017.6 1848.46 2019.59 1845.45 2022.59 1841.02 2026.61L1839.77 2025.26C1840.47 2023.67 1841.24 2021.83 1842.08 2019.72 1842.92 2017.61 1843.45 2016.19 1843.69 2015.45 1845.6 2009.56 1847.79 2001.17 1850.28 1990.3 1852.76 1979.43 1855.21 1968.02 1857.63 1956.1 1859.09 1948.87 1860.51 1941.47 1861.9 1933.91 1863.84 1931.78 1866 1929.5 1868.38 1927.08 1870.76 1924.66 1873.01 1922.38 1875.14 1920.25Z" fill="#FFFFFF" fill-rule="evenodd"/><text fill="#000000" fill-opacity="0" font-family="Arial,Arial_MSFontService,sans-serif" font-size="106.356" direction="rtl" writing-mode="rl-tb" x="1875.14" y="2013.31">ا</text><path d="M1804.57 1980.37C1800.68 1978.58 1795.92 1977.45 1790.31 1976.97 1786.32 1976.65 1781.09 1976.64 1774.59 1976.93 1769.69 1977.18 1764.83 1977.43 1759.98 1977.7L1797.42 1994.88C1802.62 1997.27 1807 1998.64 1810.57 1999 1814.14 1999.36 1816.4 1998.52 1817.34 1996.46 1818.56 1993.81 1817.85 1990.97 1815.2 1987.95 1812.56 1984.94 1809.01 1982.41 1804.57 1980.37ZM1738.8 1929.83C1739.47 1935.51 1739.5 1940.28 1738.91 1944.14 1738.05 1949.58 1735.71 1956.46 1731.88 1964.8L1733.35 1965.47C1739.79 1968.43 1746.24 1970.15 1752.71 1970.62 1758.29 1971.02 1764.59 1970.51 1771.61 1969.08 1782.18 1967.18 1788.49 1966.07 1790.53 1965.77 1796.26 1964.99 1801.16 1964.81 1805.23 1965.24 1809.86 1965.72 1814.58 1967.07 1819.4 1969.28 1826.81 1972.69 1831.38 1977.37 1833.1 1983.34 1834.7 1988.86 1833.85 1995.19 1830.57 2002.34L1821.14 2022.88 1724.67 1978.6C1717.87 1989.11 1710.1 1995.77 1701.34 1998.57 1690.45 2002.02 1677.13 2000.13 1661.37 1992.9 1650.54 1987.93 1643.13 1982.23 1639.13 1975.81 1634.76 1968.76 1634.56 1960.93 1638.51 1952.32 1640.65 1947.66 1643.38 1943.21 1646.7 1938.97 1650.02 1934.73 1653.77 1930.65 1657.93 1926.72 1660.46 1924.35 1664.58 1920.8 1670.29 1916.08L1672.86 1919.03C1665.5 1925.08 1660.17 1930.08 1656.89 1934.01 1653.61 1937.95 1651.11 1941.78 1649.4 1945.52 1646.32 1952.23 1646.37 1958.44 1649.56 1964.13 1652.75 1969.82 1658.78 1974.7 1667.66 1978.78 1678.05 1983.55 1688.17 1986 1698.01 1986.12 1710.25 1986.3 1718.22 1982.36 1721.93 1974.29 1724.41 1968.88 1725.77 1963.27 1726 1957.48 1726.2 1952.92 1725.67 1948.22 1724.41 1943.38ZM1787.89 1917.55 1798.04 1930.57 1786.46 1939.51 1776.43 1926.65Z" fill="#FFFFFF" fill-rule="evenodd"/><text fill="#000000" fill-opacity="0" font-family="Arial,Arial_MSFontService,sans-serif" font-size="106.806" direction="rtl" writing-mode="rl-tb" x="1833.88" y="2009.53">ض</text><path d="M1653.55 1812.66C1650.46 1818.78 1646.15 1827.1 1640.62 1837.62 1635.09 1848.14 1629.96 1857.53 1625.24 1865.78 1619.4 1876.08 1614.76 1883.7 1611.32 1888.64 1608.6 1892.56 1605.26 1895.86 1601.29 1898.54 1599.2 1899.99 1595.45 1901.99 1590.05 1904.55L1589.24 1902.9C1590.37 1901.58 1591.64 1900.03 1593.06 1898.26 1594.47 1896.48 1595.4 1895.28 1595.84 1894.64 1599.38 1889.56 1603.91 1882.17 1609.44 1872.48 1614.97 1862.8 1620.62 1852.6 1626.4 1841.89 1629.89 1835.39 1633.4 1828.73 1636.92 1821.89 1639.39 1820.41 1642.12 1818.86 1645.1 1817.23 1648.08 1815.6 1650.9 1814.08 1653.55 1812.66Z" fill="#FFFFFF" fill-rule="evenodd"/><text fill="#000000" fill-opacity="0" font-family="Arial,Arial_MSFontService,sans-serif" font-size="91.8867" direction="rtl" writing-mode="rl-tb" x="1653.55" y="1893.06">ا</text><path d="M1628.17 1786.41 1628.64 1788.01C1626.55 1790.76 1626.52 1793.99 1628.56 1797.71 1630.21 1800.46 1631.88 1803.23 1633.57 1806.02 1631.77 1808.39 1629.65 1810.78 1627.21 1813.2 1624.78 1815.61 1622.8 1817.28 1621.26 1818.21L1618.72 1814.48 1584.68 1876.61 1574.07 1890.54 1538.95 1863.81 1548.36 1851.44 1576.31 1872.71 1613.74 1805.97 1611.39 1801.38C1613.88 1798.11 1616.5 1795.25 1619.25 1792.82 1622.01 1790.39 1624.98 1788.25 1628.17 1786.41Z" fill="#FFFFFF" fill-rule="evenodd"/><text fill="#000000" fill-opacity="0" font-family="Arial,Arial_MSFontService,sans-serif" font-size="104.132" direction="rtl" writing-mode="rl-tb" x="1633.57" y="1877.53">ل</text><path d="M1541.08 1825.52C1536.79 1821.39 1530.22 1817.82 1521.36 1814.82 1514.15 1812.6 1506.97 1810.39 1499.81 1808.2L1529.46 1836.79C1534.14 1841.3 1537.94 1844.18 1540.87 1845.43 1543.8 1846.69 1546.07 1846.48 1547.68 1844.81 1549.71 1842.7 1549.98 1839.8 1548.51 1836.1 1547.03 1832.4 1544.55 1828.87 1541.08 1825.52ZM1558.6 1819.83C1564.44 1825.46 1567.2 1831.39 1566.89 1837.63 1566.62 1843.41 1563.75 1849.13 1558.29 1854.79L1542.6 1871.06 1465.29 1796.51C1462.97 1794.27 1461.13 1791.76 1459.78 1788.96 1458.77 1786.83 1457.83 1784.07 1456.97 1780.67 1453.68 1780.48 1450.86 1779.8 1448.5 1778.64 1446.14 1777.48 1442.99 1775 1439.04 1771.2L1426.63 1759.23 1437.42 1748.04 1449.83 1760.01C1453.31 1763.36 1456.08 1765.45 1458.16 1766.3 1461.6 1767.71 1464.75 1766.94 1467.6 1763.98 1468.8 1762.74 1469.93 1761.41 1471 1760 1472.07 1758.59 1473.18 1756.99 1474.33 1755.2L1480.69 1753.89C1476.57 1761.16 1474.28 1767.65 1473.84 1773.35 1473.36 1779.42 1475.01 1784.28 1478.78 1787.92 1482.38 1791.39 1487.39 1794.65 1493.81 1797.69 1500.73 1800.98 1507.39 1803.09 1513.77 1804.03 1524.12 1805.57 1530.39 1806.57 1532.59 1807.04 1538.21 1808.16 1542.89 1809.61 1546.63 1811.39 1550.84 1813.38 1554.83 1816.2 1558.6 1819.83Z" fill="#FFFFFF" fill-rule="evenodd"/><text fill="#000000" fill-opacity="0" font-family="Arial,Arial_MSFontService,sans-serif" font-size="123.024" direction="rtl" writing-mode="rl-tb" x="1566.91" y="1855.68">ص</text><path d="M1477.07 1695.38C1479.39 1706.63 1477.49 1717.34 1471.37 1727.53 1466.43 1735.74 1458.27 1744.26 1446.89 1753.1L1434.61 1762.64 1410.05 1731.03C1407.97 1728.34 1406.87 1725.33 1406.76 1721.98 1406.65 1718.64 1407.66 1716.14 1409.77 1714.5 1411.56 1713.11 1413.26 1711.94 1414.86 1711 1416.47 1710.05 1418.34 1709.16 1420.48 1708.33L1421.74 1709.95C1420.22 1711.97 1419.56 1713.99 1419.77 1716.01 1419.94 1717.69 1420.8 1719.51 1422.33 1721.49L1443.54 1748.8C1451.97 1742.26 1457.83 1735.82 1461.13 1729.49 1465.26 1721.6 1465.74 1713.42 1462.56 1704.96Z" fill="#FFFFFF" fill-rule="evenodd"/><text fill="#000000" fill-opacity="0" font-family="Arial,Arial_MSFontService,sans-serif" font-size="67.2593" direction="rtl" writing-mode="rl-tb" x="1478.03" y="1754.23">د</text><path d="M1433.75 1675.36C1432.45 1681.89 1430.49 1687.34 1427.85 1691.69 1424.87 1696.61 1420.68 1700.72 1415.31 1704.03L1396.82 1715.42C1391.24 1718.86 1383.99 1720.04 1375.07 1718.95 1367.23 1718.05 1359.51 1715.67 1351.89 1711.82 1344.61 1708.19 1339.8 1704.47 1337.46 1700.67 1335.31 1697.17 1333.49 1693.08 1332 1688.39 1330.86 1684.83 1329.77 1680.39 1328.73 1675.08 1327.85 1670.59 1326.99 1666.12 1326.14 1661.67L1329.98 1661.09C1331.38 1664.85 1332.86 1668.75 1334.41 1672.79 1335.96 1676.84 1337.64 1680.34 1339.45 1683.28 1343.45 1689.77 1349.7 1695.26 1358.2 1699.75 1365.94 1703.8 1374.11 1706.29 1382.69 1707.23 1391.28 1708.16 1397.91 1707.19 1402.58 1704.32 1406.58 1701.85 1410.07 1698.09 1413.05 1693.04 1415.44 1688.98 1417.47 1684.09 1419.13 1678.38Z" fill="#FFFFFF" fill-rule="evenodd"/><text fill="#000000" fill-opacity="0" font-family="Arial,Arial_MSFontService,sans-serif" font-size="58.2513" direction="rtl" writing-mode="rl-tb" x="1433.75" y="1712.06">ر</text><path d="M1319.33 1615.64 1318.94 1632.1 1304.32 1631.62 1304.78 1615.32ZM1335.55 1630.53 1335.13 1647.11 1320.51 1646.43 1321.13 1630.05ZM1398.44 1605.4C1395.42 1611.62 1392.78 1615.88 1390.51 1618.16 1387.08 1621.61 1380.59 1625.64 1371.04 1630.25L1351.41 1639.73 1329.25 1593.88 1343.25 1587.11 1362.57 1627.1C1368.9 1624.04 1373.37 1620.96 1375.97 1617.85 1377.78 1615.71 1379.89 1611.59 1382.29 1605.46Z" fill="#FFFFFF" fill-rule="evenodd"/><text fill="#000000" fill-opacity="0" font-family="Arial,Arial_MSFontService,sans-serif" font-size="59.9968" direction="rtl" writing-mode="rl-tb" x="1398.44" y="1639.61">ي</text><path d="M1366.71 1552.23C1363.16 1548.03 1359.93 1544.89 1357.01 1542.8 1354.1 1540.71 1350.75 1539.3 1346.97 1538.56 1346.91 1539.92 1347.03 1541.43 1347.34 1543.1 1347.65 1544.76 1348.31 1546.96 1349.34 1549.69 1350.6 1553.04 1353.55 1555.56 1358.19 1557.25ZM1396.78 1544.85C1393.53 1546.7 1390.4 1548.53 1387.38 1550.33 1384.37 1552.14 1381.28 1554.08 1378.12 1556.16L1364.67 1564.07C1357.28 1568.44 1351.89 1571.9 1348.52 1574.44 1343.37 1578.35 1341.14 1581.22 1341.84 1583.06L1346.33 1595.02 1331.78 1600.49 1327.28 1588.53C1325.77 1584.52 1327.87 1579.69 1333.58 1574.04 1337.85 1569.83 1343.76 1565.5 1351.33 1561.07 1347.57 1560.57 1344.35 1559.36 1341.66 1557.45 1338.97 1555.53 1337.09 1553.15 1336.02 1550.31 1333.61 1543.9 1332.03 1538.39 1331.29 1533.8 1330.55 1529.21 1330.85 1526.67 1332.19 1526.16 1336.99 1524.36 1343.47 1525.49 1351.65 1529.54 1359.82 1533.6 1367.84 1539.49 1375.71 1547.23 1376.12 1546.95 1377.2 1546.27 1378.96 1545.2 1380.72 1544.12 1381.82 1543.5 1382.27 1543.33 1384.17 1542.62 1386.53 1542.46 1389.35 1542.87 1391.64 1543.21 1394.12 1543.87 1396.78 1544.85ZM1410.89 1509 1409.02 1525.35 1394.5 1523.56 1396.43 1507.37ZM1425.7 1525.29 1423.78 1541.76 1409.28 1539.77 1411.38 1523.51Z" fill="#FFFFFF" fill-rule="evenodd"/><text fill="#000000" fill-opacity="0" font-family="Arial,Arial_MSFontService,sans-serif" font-size="93.126" direction="rtl" writing-mode="rl-tb" x="1425.7" y="1588.85">ة</text><path d="M1556.69 1485.4 1561.64 1493.52 1518.31 1519.96C1513.94 1522.63 1509.99 1524.2 1506.47 1524.67 1502.94 1525.15 1499.7 1524.45 1496.76 1522.58 1493.81 1520.71 1491.01 1517.6 1488.36 1513.26L1485.98 1509.36 1493 1505.08 1494.99 1508.34C1497.49 1512.43 1500.14 1514.67 1502.95 1515.05 1505.77 1515.43 1509.28 1514.34 1513.5 1511.76Z" fill-rule="evenodd"/><text fill="#000000" fill-opacity="0" font-family="Arial,Arial_MSFontService,sans-serif" font-size="39.4164" x="1485.98" y="1519.89">J</text><path d="M1551.19 1514.74 1556.57 1521.98 1530.13 1541.61C1528.24 1543.02 1526.7 1544.49 1525.52 1546.03 1524.35 1547.57 1523.79 1549.26 1523.86 1551.08 1523.92 1552.91 1524.79 1554.96 1526.48 1557.23 1528.83 1560.39 1531.44 1562.55 1534.33 1563.71 1537.22 1564.87 1540.01 1565.45 1542.69 1565.46L1572.45 1543.38 1577.83 1550.62 1535.82 1581.8 1530.67 1574.86 1536.98 1569.84C1534.31 1569.73 1531.29 1569.01 1527.93 1567.7 1524.56 1566.38 1521.5 1563.87 1518.75 1560.16 1515.14 1555.3 1513.89 1550.79 1514.99 1546.63 1516.1 1542.46 1519.02 1538.62 1523.76 1535.1Z" fill-rule="evenodd"/><text fill="#000000" fill-opacity="0" font-family="Arial,Arial_MSFontService,sans-serif" font-size="67.0636" x="1514.61" y="1573.42">u</text><path d="M1601.44 1547.1 1607.3 1553.82 1565.87 1589.92C1563.42 1592.06 1561.82 1594.01 1561.07 1595.78 1560.33 1597.54 1561 1599.62 1563.1 1602.03L1564.69 1603.85 1559.18 1608.65 1557.2 1606.38C1554.4 1603.17 1552.77 1600.27 1552.3 1597.69 1551.83 1595.1 1552.28 1592.67 1553.64 1590.39 1555 1588.11 1557.02 1585.81 1559.69 1583.48Z" fill-rule="evenodd"/><text fill="#000000" fill-opacity="0" font-family="Arial,Arial_MSFontService,sans-serif" font-size="61.5457" x="1552.12" y="1600.95">l</text><path d="M1597.54 1573.7 1604.23 1580.45 1585.23 1622.07 1626.13 1602.52 1632.56 1609.01 1581.58 1631.89 1575.34 1634.6C1572.27 1635.93 1569.57 1636.77 1567.26 1637.13 1564.94 1637.49 1562.77 1637.25 1560.76 1636.42 1558.76 1635.59 1556.65 1634.07 1554.46 1631.86L1550.72 1628.08 1555.98 1622.86 1559.08 1625.99C1560.52 1627.44 1562.12 1628.28 1563.89 1628.51 1565.66 1628.75 1567.81 1628.33 1570.32 1627.25L1575.11 1625.37Z" fill-rule="evenodd"/><text fill="#000000" fill-opacity="0" font-family="Arial,Arial_MSFontService,sans-serif" font-size="63.5972" x="1550.72" y="1629.34">y</text><path d="M1679.61 1624.07C1683.26 1626.97 1685.83 1630.08 1687.35 1633.42 1688.86 1636.75 1689.34 1640.12 1688.8 1643.53 1688.26 1646.94 1686.72 1650.25 1684.18 1653.44 1681.9 1656.3 1679.28 1658.47 1676.3 1659.94 1673.32 1661.41 1670.06 1662.44 1666.54 1663.02 1663.01 1663.6 1659.3 1664.01 1655.4 1664.25L1630.68 1665.72 1659.05 1688.29 1654.1 1694.51 1616.15 1664.32 1620.57 1658.77 1654.17 1656.47C1659.96 1656.1 1664.61 1655.26 1668.11 1653.97 1671.6 1652.68 1674.45 1650.66 1676.63 1647.92 1678.9 1645.06 1680.01 1642.11 1679.94 1639.06 1679.87 1636 1678.1 1633.1 1674.63 1630.33 1670.71 1627.21 1667.09 1625.99 1663.78 1626.67 1660.47 1627.36 1657.58 1629.24 1655.13 1632.32L1648.11 1626.74C1650.83 1623.32 1653.87 1620.86 1657.23 1619.37 1660.59 1617.88 1664.17 1617.5 1667.96 1618.23 1671.75 1618.96 1675.63 1620.9 1679.61 1624.07Z" fill-rule="evenodd"/><text fill="#000000" fill-opacity="0" font-family="Arial,Arial_MSFontService,sans-serif" font-size="76.6442" x="1616.15" y="1684.93">2</text><path d="M1722.62 1655.35C1725.95 1657.58 1728.62 1660.16 1730.61 1663.11 1732.61 1666.06 1733.69 1669.17 1733.85 1672.44 1734.01 1675.71 1733 1678.98 1730.81 1682.26 1728.48 1685.74 1725.6 1687.96 1722.17 1688.92 1718.73 1689.88 1715.13 1689.75 1711.38 1688.53 1714.55 1691.59 1716.5 1695.14 1717.24 1699.16 1717.97 1703.18 1716.96 1707.26 1714.2 1711.4 1711.73 1715.09 1708.82 1717.67 1705.45 1719.13 1702.09 1720.59 1698.48 1721 1694.62 1720.36 1690.77 1719.72 1686.87 1718.09 1682.94 1715.46 1676.75 1711.33 1672.84 1706.44 1671.23 1700.8 1669.61 1695.16 1670.77 1689.39 1674.71 1683.49L1682.17 1688.47C1679.74 1692.1 1678.95 1695.76 1679.79 1699.44 1680.62 1703.12 1683.07 1706.31 1687.12 1709.02 1690.87 1711.52 1694.43 1712.59 1697.8 1712.21 1701.17 1711.84 1704.13 1709.74 1706.68 1705.93 1709.12 1702.27 1709.73 1698.78 1708.5 1695.46 1707.27 1692.14 1704.59 1689.1 1700.45 1686.34L1697.01 1684.04 1701.24 1677.7 1704.86 1680.11C1708.58 1682.6 1712.04 1683.57 1715.24 1683.04 1718.44 1682.51 1721.06 1680.7 1723.11 1677.64 1725.06 1674.72 1725.55 1671.89 1724.58 1669.15 1723.61 1666.42 1721.54 1664 1718.38 1661.89 1714.81 1659.5 1711.41 1658.61 1708.17 1659.2 1704.93 1659.79 1702.28 1661.64 1700.21 1664.74L1692.75 1659.76C1695.05 1656.3 1697.84 1653.84 1701.1 1652.38 1704.35 1650.92 1707.83 1650.43 1711.53 1650.92 1715.23 1651.41 1718.93 1652.89 1722.62 1655.35Z" fill-rule="evenodd"/><text fill="#000000" fill-opacity="0" font-family="Arial,Arial_MSFontService,sans-serif" font-size="69.9128" x="1670.52" y="1711.91">3</text><path d="M1761.93 1683.14 1762.55 1683.5 1759.77 1688.2 1759.07 1687.78C1757.57 1686.9 1756.15 1686.32 1754.79 1686.05 1753.44 1685.77 1752.14 1685.73 1750.9 1685.92 1749.65 1686.11 1748.44 1686.46 1747.25 1686.97L1734.85 1707.97 1729.73 1704.94 1747.38 1675.05 1752.2 1677.89 1749.38 1683.09C1751.13 1682.03 1753.07 1681.42 1755.18 1681.26 1757.29 1681.1 1759.54 1681.73 1761.93 1683.14Z" fill-rule="evenodd"/><text fill="#000000" fill-opacity="0" font-family="Arial,Arial_MSFontService,sans-serif" font-size="32.922" x="1729.73" y="1703.85">r</text><path d="M1775.35 1695.82C1772.57 1694.33 1769.93 1694.2 1767.45 1695.43 1764.97 1696.66 1762.75 1699.11 1760.79 1702.78 1758.76 1706.57 1757.88 1709.82 1758.14 1712.52 1758.41 1715.22 1759.83 1717.26 1762.4 1718.64 1764.65 1719.84 1766.79 1720.31 1768.85 1720.05 1770.9 1719.79 1772.79 1719.16 1774.51 1718.17L1780.81 1706.38C1780.88 1704.21 1780.51 1702.18 1779.72 1700.32 1778.92 1698.45 1777.47 1696.95 1775.35 1695.82ZM1792.25 1685.01 1797.5 1687.82 1774.86 1730.12 1769.89 1727.46 1772 1722.85C1770.11 1723.75 1768.06 1724.21 1765.85 1724.23 1763.63 1724.24 1761.36 1723.62 1759.03 1722.38 1756.54 1721.04 1754.7 1719.29 1753.52 1717.12 1752.33 1714.95 1751.88 1712.41 1752.16 1709.5 1752.44 1706.59 1753.51 1703.38 1755.39 1699.89 1757.25 1696.41 1759.33 1693.79 1761.63 1692.03 1763.94 1690.27 1766.37 1689.32 1768.93 1689.16 1771.49 1689.01 1774.08 1689.64 1776.7 1691.04 1778.88 1692.21 1780.52 1693.7 1781.62 1695.51 1782.72 1697.33 1783.33 1699.32 1783.44 1701.48Z" fill-rule="evenodd"/><text fill="#000000" fill-opacity="0" font-family="Arial,Arial_MSFontService,sans-serif" font-size="45.1072" x="1752.08" y="1724.48">d</text><path d="M1849.64 1720.03C1854.21 1721.92 1858.19 1724.5 1861.59 1727.76 1864.99 1731.03 1867.36 1734.84 1868.71 1739.22 1870.06 1743.59 1869.94 1748.36 1868.35 1753.51L1859.37 1749.8C1860.35 1746.29 1860.38 1743.08 1859.43 1740.15 1858.49 1737.22 1856.89 1734.67 1854.63 1732.5 1852.38 1730.33 1849.71 1728.6 1846.63 1727.33 1841.27 1725.12 1836.42 1724.55 1832.08 1725.62 1827.74 1726.69 1823.97 1728.95 1820.77 1732.39 1817.56 1735.83 1814.93 1740.05 1812.86 1745.05 1810.81 1750.01 1809.7 1754.85 1809.54 1759.54 1809.38 1764.24 1810.47 1768.48 1812.81 1772.25 1815.14 1776.03 1818.99 1779.02 1824.35 1781.24 1829.78 1783.48 1834.73 1783.96 1839.21 1782.68 1843.7 1781.39 1847.3 1778.19 1850.04 1773.08L1859.07 1776.82C1856.37 1781.86 1853.03 1785.58 1849.05 1787.99 1845.07 1790.39 1840.71 1791.62 1835.96 1791.68 1831.21 1791.73 1826.32 1790.71 1821.29 1788.63 1814.38 1785.78 1809.15 1781.91 1805.62 1777.04 1802.1 1772.18 1800.18 1766.68 1799.86 1760.54 1799.55 1754.41 1800.79 1747.96 1803.58 1741.21 1806.37 1734.46 1810.05 1729.01 1814.61 1724.85 1819.18 1720.69 1824.43 1718.14 1830.37 1717.18 1836.3 1716.23 1842.73 1717.18 1849.64 1720.03Z" fill-rule="evenodd"/><text fill="#000000" fill-opacity="0" font-family="Arial,Arial_MSFontService,sans-serif" font-size="74.8552" x="1799.82" y="1782.32">C</text><path d="M1885.38 1735 1893.87 1737.74 1885.25 1764.42C1887.43 1762.91 1890.24 1761.72 1893.68 1760.85 1897.12 1759.99 1901.05 1760.27 1905.48 1761.71 1911.07 1763.51 1914.57 1766.41 1915.97 1770.4 1917.37 1774.39 1917.12 1779.31 1915.23 1785.17L1904.86 1817.27 1896.32 1814.51 1906.31 1783.59C1907.09 1781.21 1907.53 1779 1907.64 1776.96 1907.75 1774.93 1907.31 1773.16 1906.33 1771.66 1905.35 1770.16 1903.61 1769 1901.13 1768.2 1897.41 1767 1894.02 1766.84 1890.96 1767.71 1887.89 1768.58 1885.27 1769.77 1883.08 1771.29L1871.69 1806.55 1863.15 1803.8Z" fill-rule="evenodd"/><text fill="#000000" fill-opacity="0" font-family="Arial,Arial_MSFontService,sans-serif" font-size="82.2683" x="1863.15" y="1806.99">h</text><path d="M1952.31 1781.92C1948.08 1780.85 1944.44 1781.25 1941.4 1783.13 1938.36 1785 1936.05 1788.27 1934.47 1792.93L1962.18 1799.91C1963.27 1795.16 1962.94 1791.24 1961.21 1788.15 1959.48 1785.05 1956.51 1782.97 1952.31 1781.92ZM1953.99 1775.25C1960.9 1776.99 1965.79 1780.44 1968.67 1785.59 1971.54 1790.75 1972 1797.23 1970.03 1805.04 1969.9 1805.56 1969.72 1806.18 1969.51 1806.88 1969.3 1807.58 1969.12 1808.08 1968.97 1808.38L1932.82 1799.27C1932.02 1802.58 1931.79 1805.74 1932.12 1808.76 1932.45 1811.78 1933.52 1814.4 1935.32 1816.63 1937.12 1818.86 1939.84 1820.43 1943.49 1821.35 1947.38 1822.33 1950.65 1822.18 1953.29 1820.91 1955.94 1819.63 1957.75 1817.29 1958.72 1813.88L1967.31 1816.05C1966.31 1819.6 1964.61 1822.45 1962.22 1824.6 1959.84 1826.75 1956.9 1828.13 1953.42 1828.75 1949.94 1829.37 1946.07 1829.14 1941.8 1828.06 1936.28 1826.67 1932.05 1824.38 1929.1 1821.18 1926.16 1817.99 1924.34 1814.19 1923.64 1809.78 1922.94 1805.38 1923.21 1800.69 1924.46 1795.73 1925.77 1790.55 1927.74 1786.2 1930.38 1782.68 1933.02 1779.15 1936.32 1776.71 1940.26 1775.34 1944.21 1773.97 1948.78 1773.94 1953.99 1775.25Z" fill-rule="evenodd"/><text fill="#000000" fill-opacity="0" font-family="Arial,Arial_MSFontService,sans-serif" font-size="54.8021" x="1923.26" y="1822.24">e</text><path d="M2004.52 1786.37C2007.23 1786.88 2009.71 1787.68 2011.97 1788.76 2014.22 1789.85 2016.13 1791.23 2017.69 1792.91 2019.24 1794.59 2020.35 1796.59 2021.01 1798.9 2021.66 1801.21 2021.71 1803.84 2021.15 1806.8L2012.6 1805.17C2013.29 1801.52 2012.69 1798.72 2010.8 1796.8 2008.9 1794.87 2006.39 1793.61 2003.26 1793.02 2000.09 1792.41 1997.42 1792.49 1995.24 1793.24 1993.05 1793.99 1991.73 1795.57 1991.28 1797.96 1991.02 1799.33 1991.24 1800.58 1991.94 1801.69 1992.64 1802.81 1993.95 1803.94 1995.89 1805.09 1997.82 1806.24 2000.46 1807.57 2003.82 1809.08 2007.48 1810.73 2010.49 1812.43 2012.86 1814.19 2015.22 1815.95 2016.87 1817.95 2017.82 1820.19 2018.76 1822.42 2018.93 1825.09 2018.35 1828.19 2017.84 1830.86 2016.88 1833.07 2015.47 1834.83 2014.07 1836.59 2012.32 1837.91 2010.24 1838.81 2008.15 1839.71 2005.81 1840.22 2003.22 1840.35 2000.63 1840.48 1997.89 1840.27 1995 1839.72 1992.12 1839.17 1989.44 1838.34 1986.98 1837.21 1984.51 1836.09 1982.42 1834.66 1980.71 1832.91 1979 1831.17 1977.81 1829.07 1977.12 1826.63 1976.44 1824.18 1976.4 1821.38 1977 1818.21L1985.49 1819.82C1984.73 1823.83 1985.44 1826.89 1987.61 1829 1989.78 1831.1 1992.73 1832.51 1996.46 1833.22 1999.8 1833.85 2002.67 1833.73 2005.08 1832.86 2007.49 1831.98 2008.97 1830.07 2009.53 1827.12 2010.01 1824.58 2009.39 1822.51 2007.67 1820.91 2005.95 1819.31 2002.74 1817.46 1998.04 1815.37 1994.21 1813.66 1991.04 1811.92 1988.53 1810.15 1986.02 1808.38 1984.27 1806.41 1983.26 1804.23 1982.25 1802.05 1982.02 1799.5 1982.58 1796.58 1983.01 1794.29 1983.88 1792.37 1985.17 1790.81 1986.47 1789.26 1988.1 1788.06 1990.06 1787.23 1992.02 1786.4 1994.24 1785.92 1996.71 1785.79 1999.17 1785.65 2001.78 1785.85 2004.52 1786.37Z" fill-rule="evenodd"/><text fill="#000000" fill-opacity="0" font-family="Arial,Arial_MSFontService,sans-serif" font-size="54.6421" x="1976.58" y="1833.56">s</text><path d="M2039.49 1781.12 2048.32 1782.37 2046.63 1794.23 2059.39 1796.05 2058.37 1803.23 2045.61 1801.41 2041.7 1828.85C2041.24 1832.07 2041.31 1834.61 2041.9 1836.44 2042.49 1838.28 2044.36 1839.43 2047.51 1839.88L2053.15 1840.68 2052.13 1847.86 2045.91 1846.97C2041.72 1846.37 2038.61 1845.25 2036.56 1843.61 2034.52 1841.96 2033.26 1839.83 2032.78 1837.21 2032.31 1834.59 2032.32 1831.53 2032.82 1828.02L2036.78 1800.15 2028.12 1798.92 2029.14 1791.74 2037.81 1792.98Z" fill-rule="evenodd"/><text fill="#000000" fill-opacity="0" font-family="Arial,Arial_MSFontService,sans-serif" font-size="66.739" x="2028.12" y="1839.51">t</text><path d="M2100.72 1788.49 2097.26 1844.46 2109.75 1845.23C2116.08 1845.62 2121.36 1844.93 2125.59 1843.17 2129.83 1841.4 2133.08 1838.5 2135.36 1834.46 2137.64 1830.42 2138.97 1825.24 2139.36 1818.92 2139.75 1812.63 2139.05 1807.35 2137.25 1803.1 2135.45 1798.84 2132.55 1795.57 2128.54 1793.28 2124.54 1790.99 2119.43 1789.65 2113.21 1789.26ZM2091.57 1779.8 2115.86 1781.3C2123.4 1781.77 2129.74 1783.58 2134.89 1786.75 2140.04 1789.93 2143.84 1794.29 2146.3 1799.86 2148.75 1805.43 2149.75 1812.01 2149.28 1819.58 2148.81 1827.19 2147 1833.61 2143.86 1838.84 2140.72 1844.06 2136.4 1847.92 2130.9 1850.41 2125.41 1852.91 2118.9 1853.92 2111.4 1853.46L2087.11 1851.96Z" fill-rule="evenodd"/><text fill="#000000" fill-opacity="0" font-family="Arial,Arial_MSFontService,sans-serif" font-size="73.7673" x="2087.11" y="1844.35">D</text><path d="M2162.21 1803.18 2171.18 1803.27 2170.64 1855.58 2161.67 1855.49ZM2166.87 1782.98C2168.56 1782.99 2169.91 1783.5 2170.94 1784.49 2171.97 1785.49 2172.47 1786.74 2172.46 1788.24 2172.44 1789.75 2171.91 1790.99 2170.86 1791.96 2169.81 1792.93 2168.45 1793.41 2166.77 1793.4 2165.08 1793.38 2163.74 1792.87 2162.73 1791.88 2161.72 1790.88 2161.22 1789.63 2161.23 1788.13 2161.25 1786.62 2161.77 1785.39 2162.8 1784.41 2163.83 1783.44 2165.19 1782.96 2166.87 1782.98Z" fill-rule="evenodd"/><text fill="#000000" fill-opacity="0" font-family="Arial,Arial_MSFontService,sans-serif" font-size="72.6064" x="2161.23" y="1846.51">i</text><path d="M2204.2 1801.94C2206.95 1801.86 2209.55 1802.1 2211.98 1802.67 2214.42 1803.24 2216.58 1804.18 2218.46 1805.49 2220.35 1806.79 2221.86 1808.5 2223 1810.61 2224.14 1812.73 2224.75 1815.29 2224.84 1818.3L2216.14 1818.56C2216.03 1814.84 2214.84 1812.24 2212.58 1810.77 2210.31 1809.3 2207.59 1808.61 2204.4 1808.7 2201.18 1808.8 2198.58 1809.45 2196.61 1810.66 2194.64 1811.87 2193.7 1813.69 2193.77 1816.12 2193.81 1817.51 2194.29 1818.68 2195.22 1819.62 2196.14 1820.56 2197.67 1821.38 2199.81 1822.09 2201.94 1822.79 2204.81 1823.52 2208.42 1824.27 2212.35 1825.09 2215.66 1826.1 2218.34 1827.31 2221.03 1828.51 2223.08 1830.11 2224.48 1832.09 2225.88 1834.07 2226.63 1836.64 2226.73 1839.79 2226.81 1842.51 2226.35 1844.88 2225.36 1846.89 2224.36 1848.91 2222.94 1850.59 2221.1 1851.91 2219.26 1853.24 2217.09 1854.25 2214.58 1854.93 2212.08 1855.62 2209.36 1856 2206.42 1856.09 2203.49 1856.18 2200.7 1855.94 2198.05 1855.38 2195.4 1854.81 2193.05 1853.86 2191 1852.53 2188.96 1851.19 2187.33 1849.41 2186.14 1847.17 2184.94 1844.93 2184.29 1842.2 2184.2 1838.98L2192.84 1838.72C2192.96 1842.8 2194.31 1845.63 2196.89 1847.22 2199.46 1848.81 2202.64 1849.54 2206.44 1849.43 2209.84 1849.33 2212.62 1848.59 2214.78 1847.21 2216.94 1845.84 2217.98 1843.65 2217.89 1840.65 2217.81 1838.07 2216.76 1836.18 2214.73 1834.99 2212.71 1833.8 2209.17 1832.69 2204.13 1831.66 2200.02 1830.81 2196.55 1829.8 2193.72 1828.61 2190.89 1827.43 2188.74 1825.88 2187.29 1823.97 2185.84 1822.06 2185.06 1819.62 2184.97 1816.65 2184.9 1814.33 2185.33 1812.26 2186.26 1810.46 2187.19 1808.66 2188.53 1807.14 2190.26 1805.91 2192 1804.67 2194.06 1803.72 2196.44 1803.06 2198.82 1802.4 2201.4 1802.02 2204.2 1801.94Z" fill-rule="evenodd"/><text fill="#000000" fill-opacity="0" font-family="Arial,Arial_MSFontService,sans-serif" font-size="54.1858" x="2184.2" y="1849.34">s</text><path d="M2257.51 1805.68C2253.16 1806.06 2249.86 1807.64 2247.6 1810.4 2245.35 1813.17 2244.24 1817.02 2244.27 1821.94L2272.74 1819.45C2272.2 1814.6 2270.61 1811 2267.96 1808.65 2265.31 1806.29 2261.83 1805.3 2257.51 1805.68ZM2256.91 1798.83C2264.01 1798.21 2269.76 1799.86 2274.17 1803.79 2278.58 1807.72 2281.13 1813.7 2281.83 1821.72 2281.88 1822.26 2281.92 1822.89 2281.94 1823.63 2281.97 1824.36 2281.97 1824.89 2281.92 1825.22L2244.79 1828.47C2245.12 1831.85 2245.94 1834.92 2247.24 1837.66 2248.54 1840.41 2250.41 1842.54 2252.84 1844.05 2255.27 1845.56 2258.36 1846.15 2262.11 1845.82 2266.1 1845.47 2269.14 1844.27 2271.22 1842.2 2273.31 1840.13 2274.25 1837.32 2274.04 1833.78L2282.87 1833.01C2283.09 1836.69 2282.42 1839.94 2280.87 1842.75 2279.32 1845.57 2277 1847.84 2273.92 1849.56 2270.83 1851.29 2267.1 1852.34 2262.71 1852.73 2257.04 1853.22 2252.29 1852.44 2248.46 1850.39 2244.63 1848.33 2241.66 1845.34 2239.56 1841.41 2237.45 1837.48 2236.18 1832.96 2235.73 1827.86 2235.27 1822.55 2235.7 1817.79 2237.04 1813.59 2238.38 1809.4 2240.69 1806 2243.97 1803.42 2247.25 1800.83 2251.56 1799.3 2256.91 1798.83Z" fill-rule="evenodd"/><text fill="#000000" fill-opacity="0" font-family="Arial,Arial_MSFontService,sans-serif" font-size="54.1665" x="2235.55" y="1846.1">e</text><path d="M2326.97 1818.13C2317.56 1819.64 2310.94 1821.53 2307.09 1823.8 2303.25 1826.08 2301.61 1829.11 2302.18 1832.9 2302.56 1835.49 2303.69 1837.43 2305.57 1838.72 2307.45 1840.02 2309.98 1840.43 2313.17 1839.95 2316.71 1839.42 2319.77 1838.12 2322.36 1836.03 2324.94 1833.94 2327 1831.48 2328.53 1828.65ZM2311.29 1792.39C2313.95 1791.99 2316.53 1791.86 2319.03 1792 2321.53 1792.13 2323.84 1792.71 2325.97 1793.73 2328.09 1794.76 2329.9 1796.36 2331.38 1798.55 2332.86 1800.73 2333.88 1803.69 2334.44 1807.4L2339.59 1841.99 2331.3 1843.22 2329.76 1835.42C2327.78 1838.43 2325.34 1840.97 2322.45 1843.05 2319.56 1845.13 2316.02 1846.48 2311.84 1847.1 2308.87 1847.54 2306.06 1847.38 2303.43 1846.61 2300.8 1845.85 2298.59 1844.47 2296.79 1842.47 2294.99 1840.48 2293.85 1837.85 2293.36 1834.59 2292.67 1829.95 2293.6 1826.21 2296.14 1823.37 2298.69 1820.53 2302.55 1818.28 2307.73 1816.62 2312.92 1814.96 2319.06 1813.57 2326.17 1812.44L2325.63 1808.82C2324.97 1804.4 2323.42 1801.52 2320.98 1800.2 2318.54 1798.88 2315.64 1798.48 2312.27 1798.98 2308.7 1799.51 2305.82 1800.86 2303.65 1803.03 2301.47 1805.2 2300.68 1808.23 2301.26 1812.13L2292.65 1813.41C2292.02 1809.16 2292.42 1805.59 2293.85 1802.7 2295.28 1799.81 2297.51 1797.52 2300.54 1795.84 2303.56 1794.16 2307.15 1793.01 2311.29 1792.39Z" fill-rule="evenodd"/><text fill="#000000" fill-opacity="0" font-family="Arial,Arial_MSFontService,sans-serif" font-size="55.3971" x="2292.36" y="1840.42">a</text><path d="M2362.49 1783.2C2365.18 1782.63 2367.78 1782.42 2370.28 1782.55 2372.78 1782.69 2375.07 1783.23 2377.15 1784.18 2379.24 1785.13 2381.03 1786.55 2382.52 1788.43 2384.01 1790.31 2385.07 1792.73 2385.69 1795.67L2377.17 1797.46C2376.41 1793.81 2374.78 1791.47 2372.29 1790.42 2369.8 1789.37 2367 1789.17 2363.88 1789.82 2360.72 1790.49 2358.28 1791.59 2356.56 1793.12 2354.83 1794.65 2354.22 1796.61 2354.72 1798.99 2355 1800.36 2355.69 1801.42 2356.76 1802.19 2357.84 1802.95 2359.49 1803.49 2361.71 1803.81 2363.94 1804.13 2366.89 1804.34 2370.57 1804.44 2374.58 1804.55 2378.02 1804.97 2380.88 1805.68 2383.73 1806.4 2386.03 1807.61 2387.76 1809.31 2389.49 1811.02 2390.68 1813.41 2391.32 1816.49 2391.88 1819.16 2391.85 1821.57 2391.23 1823.73 2390.6 1825.89 2389.5 1827.79 2387.92 1829.42 2386.34 1831.05 2384.38 1832.42 2382.04 1833.54 2379.69 1834.65 2377.08 1835.51 2374.21 1836.12 2371.33 1836.72 2368.54 1836.98 2365.83 1836.89 2363.13 1836.8 2360.65 1836.28 2358.4 1835.32 2356.15 1834.37 2354.24 1832.89 2352.67 1830.9 2351.1 1828.91 2349.98 1826.33 2349.32 1823.18L2357.78 1821.4C2358.62 1825.4 2360.44 1827.95 2363.26 1829.06 2366.07 1830.17 2369.33 1830.33 2373.05 1829.55 2376.38 1828.85 2378.98 1827.64 2380.87 1825.91 2382.76 1824.18 2383.39 1821.84 2382.77 1818.89 2382.24 1816.37 2380.88 1814.7 2378.67 1813.88 2376.47 1813.07 2372.8 1812.59 2367.65 1812.47 2363.45 1812.36 2359.86 1811.97 2356.86 1811.3 2353.87 1810.63 2351.49 1809.49 2349.72 1807.86 2347.95 1806.24 2346.76 1803.98 2346.15 1801.07 2345.67 1798.79 2345.73 1796.68 2346.33 1794.75 2346.93 1792.81 2347.98 1791.08 2349.47 1789.56 2350.96 1788.04 2352.82 1786.74 2355.05 1785.67 2357.27 1784.6 2359.75 1783.78 2362.49 1783.2Z" fill-rule="evenodd"/><text fill="#000000" fill-opacity="0" font-family="Arial,Arial_MSFontService,sans-serif" font-size="54.3914" x="2345.83" y="1830.11">s</text><path d="M2415.51 1777.45C2411.3 1778.6 2408.33 1780.74 2406.6 1783.87 2404.88 1786.99 2404.48 1790.98 2405.4 1795.81L2432.95 1788.26C2431.56 1783.59 2429.35 1780.34 2426.32 1778.49 2423.29 1776.65 2419.69 1776.3 2415.51 1777.45ZM2413.69 1770.81C2420.57 1768.93 2426.52 1769.53 2431.56 1772.6 2436.6 1775.68 2440.18 1781.1 2442.31 1788.87 2442.45 1789.39 2442.6 1790.01 2442.76 1790.72 2442.92 1791.44 2443.01 1791.96 2443.02 1792.29L2407.07 1802.15C2408.01 1805.42 2409.36 1808.28 2411.13 1810.75 2412.9 1813.22 2415.12 1814.98 2417.79 1816.03 2420.45 1817.08 2423.6 1817.11 2427.22 1816.12 2431.09 1815.06 2433.86 1813.32 2435.54 1810.91 2437.22 1808.5 2437.64 1805.57 2436.81 1802.13L2445.36 1799.79C2446.23 1803.37 2446.15 1806.69 2445.13 1809.73 2444.11 1812.78 2442.24 1815.43 2439.51 1817.68 2436.79 1819.93 2433.3 1821.63 2429.05 1822.8 2423.56 1824.3 2418.75 1824.39 2414.61 1823.05 2410.48 1821.72 2407.02 1819.3 2404.25 1815.81 2401.47 1812.32 2399.41 1808.11 2398.06 1803.17 2396.65 1798.02 2396.22 1793.27 2396.79 1788.9 2397.36 1784.53 2399.02 1780.78 2401.78 1777.64 2404.54 1774.51 2408.51 1772.23 2413.69 1770.81Z" fill-rule="evenodd"/><text fill="#000000" fill-opacity="0" font-family="Arial,Arial_MSFontService,sans-serif" font-size="54.2521" x="2396.55" y="1817.21">e</text><path d="M2463.13 1755.6C2465.74 1754.71 2468.29 1754.18 2470.78 1754 2473.28 1753.83 2475.62 1754.09 2477.81 1754.78 2479.99 1755.47 2481.94 1756.66 2483.65 1758.34 2485.36 1760.03 2486.71 1762.29 2487.68 1765.14L2479.45 1767.96C2478.24 1764.43 2476.34 1762.3 2473.74 1761.56 2471.14 1760.83 2468.33 1760.97 2465.32 1762 2462.27 1763.05 2459.98 1764.44 2458.46 1766.17 2456.93 1767.9 2456.56 1769.92 2457.35 1772.22 2457.8 1773.55 2458.61 1774.52 2459.77 1775.14 2460.93 1775.77 2462.63 1776.1 2464.88 1776.15 2467.13 1776.19 2470.08 1776.04 2473.75 1775.7 2477.74 1775.31 2481.2 1775.3 2484.13 1775.67 2487.05 1776.03 2489.48 1776.95 2491.4 1778.43 2493.33 1779.91 2494.8 1782.14 2495.82 1785.12 2496.7 1787.69 2496.96 1790.09 2496.61 1792.31 2496.25 1794.54 2495.39 1796.55 2494.02 1798.36 2492.65 1800.18 2490.87 1801.78 2488.68 1803.17 2486.49 1804.56 2484.01 1805.74 2481.23 1806.69 2478.45 1807.64 2475.71 1808.23 2473.01 1808.48 2470.31 1808.72 2467.79 1808.5 2465.44 1807.83 2463.09 1807.16 2461.02 1805.93 2459.21 1804.14 2457.41 1802.36 2455.99 1799.94 2454.94 1796.89L2463.12 1794.09C2464.45 1797.95 2466.57 1800.26 2469.5 1801.02 2472.43 1801.78 2475.69 1801.54 2479.28 1800.32 2482.49 1799.21 2484.93 1797.69 2486.59 1795.74 2488.26 1793.79 2488.6 1791.39 2487.63 1788.55 2486.79 1786.11 2485.23 1784.62 2482.94 1784.07 2480.66 1783.53 2476.95 1783.51 2471.83 1784.02 2467.65 1784.42 2464.04 1784.48 2460.98 1784.18 2457.93 1783.88 2455.43 1783.03 2453.47 1781.64 2451.52 1780.24 2450.06 1778.14 2449.1 1775.33 2448.35 1773.13 2448.15 1771.03 2448.51 1769.03 2448.87 1767.04 2449.69 1765.19 2450.99 1763.5 2452.28 1761.81 2453.97 1760.3 2456.05 1758.96 2458.12 1757.62 2460.49 1756.5 2463.13 1755.6Z" fill-rule="evenodd"/><text fill="#000000" fill-opacity="0" font-family="Arial,Arial_MSFontService,sans-serif" font-size="54.6195" x="2448.33" y="1801.74">s</text><path d="M2504.82 1720.07 2513.6 1716.02 2526.32 1743.57 2562.21 1727 2549.49 1699.44 2558.17 1695.44 2588.48 1761.07 2579.8 1765.08 2565.72 1734.6 2529.83 1751.18 2543.91 1781.65 2535.13 1785.71Z" fill-rule="evenodd"/><text fill="#000000" fill-opacity="0" font-family="Arial,Arial_MSFontService,sans-serif" font-size="90.2693" x="2504.82" y="1774.42">H</text><path d="M2600.32 1701.68C2597.05 1703.54 2594.9 1705.78 2593.85 1708.38 2592.8 1710.98 2592.61 1713.84 2593.28 1716.96 2593.95 1720.08 2595.24 1723.32 2597.16 1726.68 2599.04 1729.98 2601.15 1732.68 2603.47 1734.8 2605.79 1736.92 2608.33 1738.17 2611.09 1738.55 2613.84 1738.93 2616.85 1738.19 2620.12 1736.33 2623.48 1734.41 2625.73 1732.14 2626.87 1729.53 2628.02 1726.92 2628.29 1724.06 2627.67 1720.97 2627.06 1717.88 2625.81 1714.68 2623.93 1711.39 2622.01 1708.03 2619.86 1705.28 2617.48 1703.13 2615.1 1700.99 2612.48 1699.73 2609.63 1699.36 2606.78 1698.99 2603.68 1699.76 2600.32 1701.68ZM2596.77 1695.48C2601.31 1692.88 2605.73 1691.61 2610.04 1691.67 2614.34 1691.73 2618.36 1693.03 2622.1 1695.57 2625.84 1698.12 2629.13 1701.86 2631.95 1706.8 2634.7 1711.62 2636.22 1716.27 2636.49 1720.76 2636.76 1725.24 2635.83 1729.34 2633.69 1733.06 2631.54 1736.78 2628.2 1739.94 2623.66 1742.53 2619.22 1745.07 2614.87 1746.31 2610.62 1746.24 2606.38 1746.17 2602.42 1744.86 2598.76 1742.31 2595.1 1739.77 2591.89 1736.08 2589.14 1731.26 2586.31 1726.32 2584.73 1721.61 2584.37 1717.13 2584.02 1712.65 2584.89 1708.56 2586.97 1704.85 2589.06 1701.14 2592.33 1698.02 2596.77 1695.48Z" fill-rule="evenodd"/><text fill="#000000" fill-opacity="0" font-family="Arial,Arial_MSFontService,sans-serif" font-size="54.5699" x="2584.3" y="1739.42">o</text><path d="M2642.07 1667.43C2644.35 1665.89 2646.68 1664.71 2649.04 1663.89 2651.4 1663.06 2653.73 1662.7 2656.02 1662.79 2658.31 1662.89 2660.5 1663.52 2662.59 1664.7 2664.69 1665.88 2666.58 1667.71 2668.26 1670.2L2661.06 1675.08C2658.97 1672 2656.57 1670.44 2653.87 1670.41 2651.17 1670.38 2648.5 1671.25 2645.86 1673.04 2643.19 1674.85 2641.35 1676.78 2640.33 1678.86 2639.31 1680.93 2639.49 1682.98 2640.85 1684.99 2641.63 1686.15 2642.67 1686.88 2643.95 1687.18 2645.23 1687.47 2646.96 1687.35 2649.15 1686.8 2651.33 1686.26 2654.14 1685.34 2657.59 1684.04 2661.34 1682.63 2664.68 1681.71 2667.59 1681.29 2670.51 1680.87 2673.09 1681.13 2675.34 1682.05 2677.58 1682.97 2679.59 1684.74 2681.36 1687.35 2682.88 1689.6 2683.76 1691.85 2684 1694.09 2684.24 1696.32 2683.94 1698.5 2683.09 1700.6 2682.25 1702.71 2680.95 1704.72 2679.2 1706.64 2677.45 1708.56 2675.36 1710.34 2672.93 1711.99 2670.5 1713.63 2668.01 1714.93 2665.47 1715.87 2662.93 1716.81 2660.44 1717.26 2658 1717.23 2655.55 1717.2 2653.23 1716.56 2651.02 1715.3 2648.81 1714.05 2646.8 1712.09 2645 1709.42L2652.16 1704.58C2654.45 1707.96 2657.1 1709.63 2660.12 1709.6 2663.15 1709.56 2666.23 1708.48 2669.38 1706.35 2672.19 1704.44 2674.15 1702.33 2675.24 1700.02 2676.33 1697.7 2676.03 1695.3 2674.35 1692.8 2672.9 1690.67 2671.01 1689.64 2668.66 1689.72 2666.31 1689.79 2662.73 1690.74 2657.91 1692.58 2653.99 1694.06 2650.52 1695.06 2647.49 1695.57 2644.47 1696.09 2641.83 1695.93 2639.58 1695.09 2637.33 1694.26 2635.37 1692.61 2633.71 1690.15 2632.4 1688.22 2631.66 1686.25 2631.48 1684.23 2631.3 1682.21 2631.62 1680.21 2632.42 1678.24 2633.23 1676.27 2634.46 1674.37 2636.12 1672.53 2637.77 1670.7 2639.76 1669 2642.07 1667.43Z" fill-rule="evenodd"/><text fill="#000000" fill-opacity="0" font-family="Arial,Arial_MSFontService,sans-serif" font-size="54.4513" x="2631.43" y="1710.43">s</text><path d="M2691.6 1639.79C2688.62 1642.19 2686.73 1645.01 2685.96 1648.25 2685.19 1651.49 2685.08 1654.63 2685.64 1657.67L2698.28 1673.42C2701.1 1674.64 2704 1675.16 2706.96 1674.96 2709.92 1674.76 2712.79 1673.55 2715.55 1671.33 2719.26 1668.35 2720.99 1664.77 2720.74 1660.59 2720.48 1656.41 2718.37 1651.85 2714.4 1646.91 2710.39 1641.91 2706.43 1638.79 2702.55 1637.55 2698.66 1636.31 2695.01 1637.06 2691.6 1639.79ZM2688.36 1633.1C2691.71 1630.41 2695.23 1628.88 2698.93 1628.5 2702.63 1628.13 2706.39 1628.97 2710.23 1631.04 2714.07 1633.1 2717.86 1636.46 2721.6 1641.12 2725.3 1645.73 2727.71 1650.17 2728.82 1654.44 2729.93 1658.72 2729.85 1662.69 2728.57 1666.36 2727.29 1670.02 2724.92 1673.25 2721.46 1676.03 2718.55 1678.36 2715.55 1679.82 2712.44 1680.41 2709.33 1681 2706.31 1680.82 2703.39 1679.86L2720.03 1700.59 2713.08 1706.17 2668.29 1650.39 2675.07 1644.94 2680.63 1651.43C2680.33 1648.09 2680.78 1644.81 2681.99 1641.59 2683.19 1638.37 2685.32 1635.54 2688.36 1633.1Z" fill-rule="evenodd"/><text fill="#000000" fill-opacity="0" font-family="Arial,Arial_MSFontService,sans-serif" font-size="77.7562" x="2668.29" y="1696.45">p</text><path d="M2713.28 1612.92 2719.89 1606.85 2755.28 1645.38 2748.68 1651.45ZM2702.86 1595C2704.1 1593.86 2705.44 1593.3 2706.87 1593.32 2708.3 1593.34 2709.52 1593.91 2710.54 1595.02 2711.56 1596.12 2712.02 1597.39 2711.92 1598.82 2711.82 1600.25 2711.15 1601.53 2709.91 1602.67 2708.67 1603.81 2707.35 1604.36 2705.93 1604.32 2704.51 1604.29 2703.29 1603.72 2702.28 1602.61 2701.26 1601.5 2700.79 1600.24 2700.88 1598.83 2700.96 1597.41 2701.62 1596.13 2702.86 1595Z" fill-rule="evenodd"/><text fill="#000000" fill-opacity="0" font-family="Arial,Arial_MSFontService,sans-serif" font-size="58.1241" x="2700.87" y="1644.18">i</text><path d="M2723.48 1586.84 2729.75 1580.5 2738.27 1588.92 2747.33 1579.74 2752.49 1584.84 2743.43 1594.01 2763.15 1613.48C2765.47 1615.77 2767.54 1617.23 2769.37 1617.85 2771.2 1618.47 2773.23 1617.65 2775.47 1615.38L2779.47 1611.33 2784.63 1616.43 2780.21 1620.9C2777.24 1623.9 2774.49 1625.74 2771.95 1626.4 2769.41 1627.06 2766.94 1626.8 2764.56 1625.63 2762.17 1624.45 2759.71 1622.62 2757.19 1620.13L2737.17 1600.35 2731.01 1606.58 2725.85 1601.49 2732.01 1595.26Z" fill-rule="evenodd"/><text fill="#000000" fill-opacity="0" font-family="Arial,Arial_MSFontService,sans-serif" font-size="47.0133" x="2723.48" y="1620.88">t</text><path d="M2794.32 1566.56C2788.26 1573.91 2784.54 1579.7 2783.15 1583.95 2781.77 1588.19 2782.55 1591.55 2785.47 1594.02 2787.47 1595.71 2789.6 1596.42 2791.87 1596.15 2794.13 1595.88 2796.3 1594.52 2798.38 1592.06 2800.69 1589.32 2802.13 1586.31 2802.69 1583.04 2803.25 1579.77 2803.17 1576.56 2802.45 1573.42ZM2765.55 1557.59C2767.28 1555.54 2769.13 1553.74 2771.09 1552.19 2773.06 1550.64 2775.18 1549.54 2777.45 1548.91 2779.72 1548.27 2782.13 1548.28 2784.69 1548.94 2787.25 1549.6 2789.97 1551.15 2792.84 1553.57L2819.56 1576.13 2814.15 1582.53 2807.84 1577.69C2808.34 1581.25 2808.2 1584.77 2807.4 1588.25 2806.6 1591.72 2804.83 1595.07 2802.11 1598.3 2800.17 1600.6 2797.96 1602.33 2795.48 1603.49 2793 1604.65 2790.42 1605.08 2787.75 1604.77 2785.08 1604.46 2782.49 1603.25 2779.97 1601.12 2776.39 1598.09 2774.61 1594.67 2774.65 1590.86 2774.68 1587.05 2776.09 1582.8 2778.89 1578.13 2781.68 1573.46 2785.37 1568.36 2789.96 1562.81L2787.17 1560.45C2783.75 1557.57 2780.69 1556.43 2777.98 1557.06 2775.28 1557.68 2772.83 1559.29 2770.64 1561.89 2768.3 1564.65 2767.04 1567.57 2766.84 1570.63 2766.64 1573.7 2768.05 1576.5 2771.06 1579.04L2765.44 1585.69C2762.16 1582.92 2760.1 1579.98 2759.27 1576.86 2758.43 1573.74 2758.59 1570.55 2759.75 1567.29 2760.91 1564.03 2762.85 1560.79 2765.55 1557.59Z" fill-rule="evenodd"/><text fill="#000000" fill-opacity="0" font-family="Arial,Arial_MSFontService,sans-serif" font-size="56.4286" x="2758.74" y="1597.81">a</text><path d="M2770.61 1520.52 2775.82 1513.29 2820.41 1545.39C2823.05 1547.29 2825.32 1548.41 2827.21 1548.73 2829.09 1549.05 2830.97 1547.92 2832.83 1545.33L2834.24 1543.37 2840.17 1547.64 2838.41 1550.08C2835.92 1553.53 2833.47 1555.79 2831.07 1556.83 2828.66 1557.88 2826.19 1558 2823.66 1557.19 2821.13 1556.39 2818.43 1554.95 2815.55 1552.88Z" fill-rule="evenodd"/><text fill="#000000" fill-opacity="0" font-family="Arial,Arial_MSFontService,sans-serif" font-size="44.4312" x="2770.61" y="1552.17">l</text></g></svg>